<svg width="16" height="21" viewBox="0 0 16 21" fill="none" xmlns="http://www.w3.org/2000/svg">
<g clip-path="url(#clip0_2736_2588)">
<path fill-rule="evenodd" clip-rule="evenodd" d="M14.702 14.6881L12.384 15.5528C12.309 15.579 12.228 15.5747 12.157 15.5409C12.086 15.5071 12.03 15.4463 12.001 15.3713L10.8 12.0354H5.17499L3.97699 15.3643C3.94899 15.4394 3.89299 15.5004 3.82199 15.5345C3.75099 15.5685 3.67001 15.573 3.59601 15.5469L1.28101 14.6822C1.24401 14.6705 1.21 14.6514 1.181 14.626C1.152 14.6006 1.12799 14.5695 1.11099 14.5345C1.09299 14.4994 1.08299 14.4612 1.08099 14.422C1.07799 14.3829 1.08301 14.3436 1.09601 14.3065L5.77701 1.70257C5.96501 1.26328 6.27398 0.889737 6.66599 0.627481C7.05698 0.365225 7.515 0.225586 7.983 0.225586C8.45 0.225586 8.90799 0.365225 9.29999 0.627481C9.69199 0.889737 10 1.26328 10.189 1.70257L14.887 14.3136C14.9 14.3506 14.905 14.3898 14.902 14.4289C14.899 14.4679 14.889 14.5061 14.872 14.541C14.855 14.576 14.831 14.607 14.802 14.6323C14.773 14.6576 14.739 14.6766 14.702 14.6881ZM8.35501 4.88301L7.98599 3.82288V3.81461L5.86801 9.66071H10.106L8.35501 4.88301ZM1.095 17.9063H14.905C15.199 17.9159 15.477 18.0423 15.682 18.2587C15.886 18.4751 16 18.7646 16 19.0659C16 19.3672 15.886 19.6568 15.682 19.8732C15.477 20.0896 15.199 20.216 14.905 20.2256H1.095C0.801001 20.216 0.522993 20.0896 0.317993 19.8732C0.113993 19.6568 0 19.3672 0 19.0659C0 18.7646 0.113993 18.4751 0.317993 18.2587C0.522993 18.0423 0.801001 17.9159 1.095 17.9063Z" fill="#FC0018"/>
</g>
<defs>
<clipPath id="clip0_2736_2588">
<rect width="16" height="20" fill="white" transform="translate(0 0.225586)"/>
</clipPath>
</defs>
</svg>
