<svg width="39" height="34" viewBox="0 0 39 34" fill="none" xmlns="http://www.w3.org/2000/svg">
<path d="M19.332 6.51141C17.3152 3.88611 14.2061 1.26081 6.50088 1.06815C5.99477 1.05552 5.58203 1.47595 5.58203 1.99371C5.58203 5.83461 5.58203 20.3757 5.58203 24.6762C5.58203 25.1939 5.99481 25.6006 6.50079 25.6175C14.2061 25.8751 17.3152 29.369 19.332 31.9944M19.332 6.51141C21.3489 3.88611 24.4578 1.26081 32.1632 1.06815C32.6693 1.05552 33.082 1.4665 33.082 1.98426C33.082 6.27775 33.082 20.3814 33.082 24.6749C33.082 25.1926 32.6693 25.6006 32.1633 25.6175C24.458 25.8751 21.3489 29.369 19.332 31.9944M19.332 6.51141V31.9944" stroke="#825E69" stroke-width="1.8" stroke-linejoin="round"/>
<path d="M32.5981 4.80688H36.75C37.2562 4.80688 37.6667 5.22662 37.6667 5.74438V30.1925C37.6667 30.9511 36.7927 31.4551 36.1148 31.1471C34.6571 30.4846 32.2244 29.6754 29.0392 29.6754C23.647 29.6754 19.3333 32.9319 19.3333 32.9319C19.3333 32.9319 15.0196 29.6754 9.62745 29.6754C6.44216 29.6754 4.00953 30.4846 2.55186 31.1471C1.87391 31.4551 1 30.9511 1 30.1925V5.74438C1 5.22662 1.41041 4.80688 1.91667 4.80688H6.06864" stroke="#825E69" stroke-width="1.8" stroke-linejoin="round"/>
</svg>
