<svg width="41" height="40" viewBox="0 0 41 40" fill="none" xmlns="http://www.w3.org/2000/svg">
<path d="M20.5002 2.75854C30.0223 2.75854 37.7415 10.4778 37.7415 19.9999C37.7415 29.5221 30.0223 37.2413 20.5002 37.2413C10.978 37.2413 3.25879 29.5221 3.25879 19.9999C3.25879 10.4778 10.978 2.75854 20.5002 2.75854ZM20.5002 4.67425C12.036 4.67425 5.1745 11.5358 5.1745 19.9999C5.1745 28.4641 12.036 35.3256 20.5002 35.3256C28.9643 35.3256 35.8258 28.4641 35.8258 19.9999C35.8258 11.5358 28.9643 4.67425 20.5002 4.67425ZM20.5002 25.7471C21.0292 25.7471 21.458 26.1759 21.458 26.7049C21.458 27.2339 21.0292 27.6628 20.5002 27.6628C19.9712 27.6628 19.5423 27.2339 19.5423 26.7049C19.5423 26.1759 19.9712 25.7471 20.5002 25.7471ZM20.5002 12.3371C21.0292 12.3371 21.458 12.7659 21.458 13.2949V22.8735C21.458 23.4025 21.0292 23.8313 20.5002 23.8313C19.9712 23.8313 19.5423 23.4025 19.5423 22.8735V13.2949C19.5423 12.7659 19.9712 12.3371 20.5002 12.3371Z" fill="#825E69"/>
</svg>
