<svg width="20" height="21" viewBox="0 0 20 21" fill="none" xmlns="http://www.w3.org/2000/svg">
<g clip-path="url(#clip0_2736_2598)">
<path d="M13.522 10.8987L17.6 19.4256H11.2L7.854 12.4285C7.315 12.8275 6.889 13.3727 6.633 14.0064C6.459 14.4356 6.36401 14.9056 6.36401 15.398C6.36401 16.3172 6.69699 17.1576 7.24799 17.8024C6.70499 19.2202 5.344 20.2256 3.75 20.2256C1.679 20.2256 0 18.5274 0 16.4325C0 15.9791 0.0790225 15.5442 0.223022 15.1411C0.982022 12.369 3.57903 10.1089 6.47803 9.55252L2.40002 1.02561H8.79999L12.146 8.02262C12.685 7.62368 13.111 7.07846 13.367 6.44479C13.541 6.01554 13.636 5.5456 13.636 5.05317C13.636 4.13399 13.303 3.29357 12.752 2.64882C13.295 1.23096 14.656 0.225586 16.25 0.225586C18.321 0.225586 20 1.92381 20 4.01868C20 4.47176 19.921 4.9063 19.777 5.30911C19.019 8.08169 16.421 10.3422 13.522 10.8987Z" fill="#FD6A5E"/>
</g>
<defs>
<clipPath id="clip0_2736_2598">
<rect width="20" height="20" fill="white" transform="translate(0 0.225586)"/>
</clipPath>
</defs>
</svg>
