<svg width="21" height="18" viewBox="0 0 21 18" fill="none" xmlns="http://www.w3.org/2000/svg">
<path d="M2.24152 12.2095C1.41384 11.1342 1 10.5966 1 9.0001C1 7.4036 1.41384 6.86598 2.24152 5.79068C3.89418 3.64361 6.66584 1.20947 10.7383 1.20947C14.8107 1.20947 17.5823 3.64361 19.235 5.79068C20.0627 6.86598 20.4766 7.4036 20.4766 9.0001C20.4766 10.5966 20.0627 11.1342 19.235 12.2095C17.5823 14.3565 14.8107 16.7907 10.7383 16.7907C6.66584 16.7907 3.89418 14.3565 2.24152 12.2095Z" stroke="#825E69"/>
<path d="M13.6594 9.0001C13.6594 10.6136 12.3514 11.9216 10.7379 11.9216C9.12435 11.9216 7.81641 10.6136 7.81641 9.0001C7.81641 7.38656 9.12435 6.07861 10.7379 6.07861C12.3514 6.07861 13.6594 7.38656 13.6594 9.0001Z" stroke="#825E69"/>
</svg>
