<svg width="18" height="18" viewBox="0 0 18 18" fill="none" xmlns="http://www.w3.org/2000/svg">
<path d="M0.738281 6.33333H16.7383M4.29384 1V2.77778M13.1827 1V2.77778M3.40495 9.88889H5.18273M3.40495 13.4444H5.18273M7.84939 9.88889H9.62717M7.84939 13.4444H9.62717M12.2938 9.88889H14.0716M12.2938 13.4444H14.0716M3.58273 17H13.8938C14.8895 17 15.3873 17 15.7676 16.8062C16.1021 16.6358 16.3741 16.3638 16.5445 16.0293C16.7383 15.6491 16.7383 15.1512 16.7383 14.1556V5.62222C16.7383 4.62657 16.7383 4.12875 16.5445 3.74846C16.3741 3.41395 16.1021 3.14198 15.7676 2.97155C15.3873 2.77778 14.8895 2.77778 13.8938 2.77778H3.58273C2.58708 2.77778 2.08925 2.77778 1.70897 2.97155C1.37445 3.14198 1.10249 3.41395 0.93205 3.74846C0.738281 4.12875 0.738281 4.62657 0.738281 5.62222V14.1556C0.738281 15.1512 0.738281 15.6491 0.93205 16.0293C1.10249 16.3638 1.37445 16.6358 1.70897 16.8062C2.08925 17 2.58707 17 3.58273 17Z" stroke="#825E69" stroke-linecap="round" stroke-linejoin="round"/>
</svg>
