<svg width="22" height="18" viewBox="0 0 22 18" fill="none" xmlns="http://www.w3.org/2000/svg">
<path d="M2.50324 12.2094C1.67556 11.1341 1.26172 10.5965 1.26172 8.99998C1.26172 7.40348 1.67556 6.86586 2.50324 5.79056C4.1559 3.64349 6.92756 1.20935 11 1.20935C15.0725 1.20935 17.8441 3.64349 19.4967 5.79056C20.3244 6.86586 20.7383 7.40348 20.7383 8.99998C20.7383 10.5965 20.3244 11.1341 19.4967 12.2094C17.8441 14.3564 15.0725 16.7906 11 16.7906C6.92756 16.7906 4.1559 14.3564 2.50324 12.2094Z" stroke="#825E69"/>
<path d="M13.9216 8.99998C13.9216 10.6135 12.6136 11.9215 11.0001 11.9215C9.38656 11.9215 8.07861 10.6135 8.07861 8.99998C8.07861 7.38644 9.38656 6.07849 11.0001 6.07849C12.6136 6.07849 13.9216 7.38644 13.9216 8.99998Z" stroke="#825E69"/>
</svg>
