<svg width="8" height="14" viewBox="0 0 8 14" fill="none" xmlns="http://www.w3.org/2000/svg">
<path fill-rule="evenodd" clip-rule="evenodd" d="M0.29289 13.7071C-0.09763 13.3166 -0.0976301 12.6834 0.29289 12.2929L5.5858 7L0.292889 1.7071C-0.0976305 1.3166 -0.0976306 0.6834 0.292889 0.2929C0.683419 -0.0976 1.31658 -0.0976 1.70711 0.2929L7.7071 6.2929C8.0976 6.6834 8.0976 7.3166 7.7071 7.7071L1.70711 13.7071C1.31658 14.0976 0.68342 14.0976 0.29289 13.7071ZM2 7C2 7.5523 1.55228 8 1 8C0.44772 8 1.27944e-07 7.5523 1.03802e-07 7L1.03365e-07 6.99C7.92233e-08 6.4377 0.44772 5.99 1 5.99C1.55228 5.99 2 6.4377 2 6.99L2 7Z" fill="#825E69"/>
</svg>
