<svg width="259" height="111" viewBox="0 0 259 111" fill="none" xmlns="http://www.w3.org/2000/svg">
<g filter="url(#filter0_d_2629_2804)">
<path d="M27.7896 84.3677C27.0319 84.3677 26.4026 84.1054 25.9007 83.5812C25.3991 83.0568 25.1483 82.4108 25.1483 81.6432C25.1483 80.8857 25.4017 80.2423 25.9083 79.7132C26.4151 79.1838 27.0496 78.9192 27.8122 78.9192C28.2534 78.9192 28.6299 78.9906 28.9408 79.1336C29.252 79.2764 29.5556 79.4886 29.8514 79.7692L29.4601 80.1909C28.9536 79.7091 28.4018 79.4683 27.8047 79.4683C27.2227 79.4683 26.7373 79.6766 26.3486 80.0931C25.9597 80.5096 25.7652 81.0262 25.7652 81.6432C25.7652 82.2555 25.9611 82.771 26.3524 83.19C26.7437 83.6088 27.2279 83.8181 27.8047 83.8181C28.1457 83.8181 28.4468 83.7554 28.7074 83.63C28.9687 83.5046 29.2346 83.314 29.5054 83.0583L29.8967 83.4721C29.6006 83.7681 29.2897 83.9913 28.9634 84.1419C28.6375 84.2923 28.2462 84.3677 27.7896 84.3677ZM34.585 84.2772V79.5513H32.8163V79.0094H36.9551V79.5513H35.1867V84.2772H34.585ZM41.1017 84.3677C40.7923 84.3682 40.4874 84.2932 40.2134 84.1495L40.4468 83.6753C40.6425 83.7806 40.8657 83.8332 41.1165 83.8332C41.5432 83.8332 41.8944 83.5699 42.1702 83.0432L39.8523 79.0094H40.5298L42.4712 82.4485L44.1496 79.0094H44.7969L42.7121 83.1712C42.3159 83.9687 41.7792 84.3677 41.1017 84.3677ZM47.4001 85.4511V83.7354H47.9418C48.4736 82.8876 48.7395 81.6182 48.7395 79.9277V79.0094H52.1859V83.7354H52.871L52.7804 85.4511H52.284V84.2772H48.0094L47.904 85.4511H47.4001ZM48.6117 83.7354H51.5914V79.5513H49.3113V80.2362C49.3133 80.9079 49.2503 81.5782 49.1232 82.2378C48.9978 82.8801 48.8271 83.3793 48.6117 83.7354ZM56.0013 84.2772V79.0097H56.5955V83.3822L59.7413 79.0097H60.3056V84.2775H59.7186V79.9053L56.5807 84.2775L56.0013 84.2772ZM63.624 84.2772L65.2722 82.1627C64.8356 82.0823 64.487 81.9081 64.2261 81.6397C63.9654 81.3712 63.8348 81.0238 63.8348 80.5972C63.8348 80.1509 63.9677 79.7997 64.2336 79.5437C64.5898 79.1876 65.1015 79.0094 65.7689 79.0094H68.0188V84.2772H67.4243V82.2602H65.912L64.3465 84.2772H63.624ZM65.8063 81.7563H67.4243V79.5437H65.8063C65.375 79.5437 65.0377 79.6427 64.7944 79.8409C64.5509 80.0391 64.4292 80.3061 64.4292 80.6425C64.4292 80.9786 64.557 81.2482 64.813 81.4513C65.069 81.6545 65.3999 81.7563 65.8063 81.7563ZM76.2813 84.2772V79.0097H80.0891V79.5516H76.8758V81.35H79.7504V81.8919H76.8758V83.7356H80.1269V84.2775L76.2813 84.2772ZM85.9887 84.3677C85.2311 84.3677 84.6015 84.1054 84.0999 83.5812C83.5983 83.0568 83.3475 82.4108 83.3475 81.6432C83.3475 80.8857 83.6009 80.2423 84.1074 79.7132C84.6143 79.1838 85.2488 78.9192 86.0114 78.9192C86.4526 78.9192 86.8291 78.9906 87.14 79.1336C87.4511 79.2764 87.7548 79.4886 88.0506 79.7692L87.6593 80.1909C87.1525 79.7091 86.6006 79.4683 86.0038 79.4683C85.4218 79.4683 84.9365 79.6766 84.5478 80.0931C84.1588 80.5096 83.9643 81.0262 83.9643 81.6432C83.9643 82.2555 84.1603 82.771 84.5516 83.19C84.9429 83.6088 85.4268 83.8181 86.0038 83.8181C86.3449 83.8181 86.6459 83.7554 86.9066 83.63C87.1678 83.5046 87.4334 83.314 87.7046 83.0583L88.0959 83.4721C87.7998 83.7681 87.4886 83.9913 87.1626 84.1419C86.8366 84.2923 86.4453 84.3677 85.9887 84.3677ZM92.7841 84.2772V79.5513H91.0155V79.0094H95.1542V79.5513H93.3859V84.2772H92.7841ZM98.5258 84.2772V79.0097H102.333V79.5516H99.12V81.35H101.995V81.8919H99.12V83.7356H102.371V84.2775L98.5258 84.2772ZM108.233 84.3677C107.475 84.3677 106.846 84.1054 106.344 83.5812C105.843 83.0568 105.592 82.4108 105.592 81.6432C105.592 80.8857 105.845 80.2423 106.352 79.7132C106.858 79.1838 107.493 78.9192 108.256 78.9192C108.697 78.9192 109.073 78.9906 109.384 79.1336C109.695 79.2764 109.999 79.4886 110.295 79.7692L109.904 80.1909C109.397 79.7091 108.845 79.4683 108.248 79.4683C107.666 79.4683 107.181 79.6766 106.792 80.0931C106.403 80.5096 106.209 81.0262 106.209 81.6432C106.209 82.2555 106.404 82.771 106.796 83.19C107.187 83.6088 107.671 83.8181 108.248 83.8181C108.589 83.8181 108.89 83.7554 109.151 83.63C109.412 83.5046 109.678 83.314 109.949 83.0583L110.34 83.4721C110.044 83.7681 109.733 83.9913 109.407 84.1419C109.081 84.2923 108.69 84.3677 108.233 84.3677ZM115.028 84.2772V79.5513H113.26V79.0094H117.398V79.5513H115.63V84.2772H115.028ZM120.77 84.2772V79.0097H123.012C123.629 79.0097 124.088 79.1653 124.39 79.4764C124.615 79.712 124.728 79.9979 124.728 80.3343C124.728 80.906 124.449 81.3123 123.893 81.5532C124.645 81.779 125.021 82.2079 125.021 82.8403C125.021 83.2867 124.848 83.6378 124.502 83.8938C124.156 84.1498 123.692 84.2775 123.11 84.2775L120.77 84.2772ZM121.357 83.7432H123.125C123.527 83.7432 123.843 83.659 124.073 83.4907C124.304 83.3227 124.419 83.0882 124.419 82.7872C124.419 82.4961 124.3 82.2729 124.062 82.1174C123.824 81.9618 123.476 81.884 123.02 81.884H121.357V83.7432ZM121.357 81.3576H122.914C123.281 81.3576 123.574 81.2746 123.795 81.1092C124.016 80.9434 124.126 80.7078 124.126 80.4016C124.126 80.1358 124.024 79.9262 123.821 79.7733C123.618 79.62 123.331 79.544 122.96 79.544H121.357V81.3576ZM128.46 84.2772V79.0097H132.268V79.5516H129.055V81.35H131.929V81.8919H129.055V83.7356H132.306V84.2775L128.46 84.2772ZM135.76 84.2772V79.0097H136.354V81.35H139.395V79.0097H139.989V84.2775H139.395V81.907H136.354V84.2775L135.76 84.2772ZM143.737 84.2772V79.0097H144.331V81.35H147.371V79.0097H147.966V84.2775H147.371V81.907H144.331V84.2775L143.737 84.2772ZM156.092 83.5662C155.586 84.1002 154.941 84.3677 154.159 84.3677C153.376 84.3677 152.734 84.1016 152.232 83.5696C151.731 83.038 151.48 82.396 151.48 81.6432C151.48 80.8959 151.733 80.2548 152.24 79.7205C152.746 79.1865 153.391 78.9192 154.174 78.9192C154.956 78.9192 155.598 79.185 156.1 79.7167C156.602 80.2487 156.853 80.8909 156.853 81.6432C156.853 82.3908 156.599 83.0319 156.092 83.5662ZM152.688 83.186C153.081 83.6074 153.577 83.8181 154.174 83.8181C154.771 83.8181 155.264 83.6088 155.652 83.1897C156.041 82.771 156.236 82.2552 156.236 81.6432C156.236 81.0363 156.038 80.522 155.645 80.1007C155.251 79.6793 154.756 79.4686 154.159 79.4686C153.562 79.4686 153.069 79.6778 152.68 80.0969C152.291 80.5157 152.097 81.0314 152.097 81.6432C152.097 82.2503 152.294 82.7646 152.688 83.186ZM160.367 84.2772V79.0097H163.731V79.5516H160.961V84.2775L160.367 84.2772ZM171.436 83.5662C170.93 84.1002 170.285 84.3677 169.502 84.3677C168.72 84.3677 168.077 84.1016 167.576 83.5696C167.074 83.038 166.823 82.396 166.823 81.6432C166.823 80.8959 167.077 80.2548 167.583 79.7205C168.09 79.1865 168.735 78.9192 169.518 78.9192C170.3 78.9192 170.942 79.185 171.444 79.7167C171.946 80.2487 172.196 80.8909 172.196 81.6432C172.196 82.3908 171.943 83.0319 171.436 83.5662ZM168.031 83.186C168.425 83.6074 168.92 83.8181 169.518 83.8181C170.114 83.8181 170.607 83.6088 170.996 83.1897C171.385 82.771 171.579 82.2552 171.579 81.6432C171.579 81.0363 171.383 80.522 170.989 80.1007C170.595 79.6793 170.1 79.4686 169.502 79.4686C168.905 79.4686 168.412 79.6778 168.024 80.0969C167.635 80.5157 167.44 81.0314 167.44 81.6432C167.44 82.2503 167.637 82.7646 168.031 83.186ZM181.618 84.2772V79.5513H179.849V79.0094H183.988V79.5513H182.22V84.2772H181.618ZM186.908 84.2772L189.309 78.972H189.865L192.266 84.2772H191.626L191.009 82.885H188.142L187.517 84.2772H186.908ZM188.375 82.3507H190.776L189.579 79.6642L188.375 82.3507ZM196.954 84.2772V79.5513H195.186V79.0094H199.324V79.5513H197.556V84.2772H196.954ZM203.471 84.3677C203.161 84.3681 202.857 84.2932 202.583 84.1495L202.816 83.6753C203.012 83.7806 203.235 83.8332 203.486 83.8332C203.912 83.8332 204.263 83.5699 204.539 83.0432L202.222 79.0094H202.899L204.84 82.4485L206.518 79.0094H207.166L205.081 83.1712C204.685 83.9687 204.148 84.3677 203.471 84.3677ZM209.987 84.2772L212.388 78.972H212.945L215.345 84.2772H214.706L214.088 82.885H211.222L210.597 84.2772H209.987ZM211.455 82.3507H213.855L212.659 79.6642L211.455 82.3507ZM218.077 84.2772L220.244 81.267L218.212 79.0094H218.95L221.696 82.1177V79.0094H222.291V82.1177L225.038 79.0094H225.775L223.743 81.2673L225.911 84.2772H225.173L223.329 81.7111L222.291 82.8624V84.2772H221.696V82.8624L220.65 81.7111L218.814 84.2772H218.077ZM228.642 84.2772L231.043 78.972H231.599L234 84.2772H233.361L232.743 82.885H229.876L229.252 84.2772H228.642ZM230.109 82.3507H232.51L231.313 79.6642L230.109 82.3507ZM29.9208 67.5963C36.6935 67.4906 46.8527 65.7972 52.6199 67.5963V62.5166C51.8791 62.4635 51.1911 62.4635 50.5032 62.4635C44.3656 62.4635 38.9687 66.3263 29.9208 66.5381V47.2241H38.6512C42.8312 47.2241 44.8947 47.4359 45.7415 51.3516H46.2704V42.2062H45.7415C44.8947 45.5838 42.8312 46.1657 38.6512 46.1657H29.9208V31.5262L32.778 31.5793C42.8312 31.7908 46.4291 35.9711 51.5618 35.9711H51.826V30.459C48.5984 31.7908 41.2968 30.459 29.9208 30.459H25V67.5963H29.9208ZM199.184 67.5963L209.026 42.3031L218.762 67.5963H222.148L234 37.0116H230.084C230.508 39.6044 230.084 44.1022 228.444 48.2825L222.36 64.0513L211.83 37.0116H207.227C208.179 38.705 207.862 42.2944 206.116 46.8361L199.978 62.79L189.925 37.0116H185.057L196.856 67.5963H199.184ZM120.558 48.4209V48.6C126.219 49.1819 129.024 52.7272 129.024 57.4894C129.024 62.0403 125.214 67.5963 116.643 67.5963H101.034V30.4503H115.426C123.257 30.4503 126.484 35.0538 126.484 39.7103C126.484 43.9989 124.289 46.8152 120.558 48.4209ZM118.214 49.5133C111.991 51.7794 108.048 58.2782 105.955 63.4868V66.5381H113.997C120.664 66.5381 124.103 61.8816 124.103 57.4897C124.103 53.6455 121.862 50.5599 118.214 49.5133ZM105.955 58.5351C108.003 55.9803 109.97 53.7975 111.855 51.9877C115.961 48.0474 121.824 46.6709 121.881 40.0278C121.916 35.8478 119.182 31.5084 113.309 31.5084H105.955V58.5351ZM83.6259 43.9963C82.7263 38.546 79.4459 36.3766 75.6363 36.3766C70.7683 36.3766 64.9483 39.8691 61.7735 44.4725V37.0116H56.8527V67.5963H61.7735V46.06C64.7367 41.9328 69.2339 38.7581 72.9376 38.7581C75.7951 38.7581 78.1759 40.6097 78.9167 45.1603L82.6735 67.5963H87.5943L83.6259 43.9963ZM94.0494 30.6091C95.6367 30.6091 96.8535 29.3391 96.8535 27.8044C96.8535 26.27 95.6367 25 94.0494 25C92.515 25 91.2979 26.27 91.2979 27.8044C91.2979 29.3391 92.515 30.6091 94.0494 30.6091ZM96.5362 67.5963V37.0116H91.6155V67.5963H96.5362ZM137.754 67.5963V49.1819C138.654 45.9544 141.246 38.4403 146.59 38.4403C150.241 38.6522 152.04 41.9328 155.268 41.9328V37.0116C152.728 37.0116 151.3 36.165 148.284 36.165C142.887 36.165 139.765 40.6628 137.754 46.3778V37.0113H132.833V67.596L137.754 67.5963ZM170.295 68.496C179.025 68.496 184.898 62.7813 184.898 52.0394C184.898 42.1444 178.972 36.165 170.295 36.165C161.67 36.165 155.744 42.1972 155.744 52.2513C155.744 62.7813 161.617 68.496 170.295 68.496ZM171.776 67.3319C164.739 67.3319 160.241 57.6485 160.241 49.235C160.241 43.0441 162.887 37.3822 168.549 37.3822C175.745 37.3822 180.454 47.1184 180.454 55.3728C180.454 61.6169 177.279 67.3319 171.776 67.3319Z" fill="white"/>
</g>
<defs>
<filter id="filter0_d_2629_2804" x="0" y="0" width="259" height="110.451" filterUnits="userSpaceOnUse" color-interpolation-filters="sRGB">
<feFlood flood-opacity="0" result="BackgroundImageFix"/>
<feColorMatrix in="SourceAlpha" type="matrix" values="0 0 0 0 0 0 0 0 0 0 0 0 0 0 0 0 0 0 127 0" result="hardAlpha"/>
<feOffset/>
<feGaussianBlur stdDeviation="12.5"/>
<feComposite in2="hardAlpha" operator="out"/>
<feColorMatrix type="matrix" values="0 0 0 0 0.509804 0 0 0 0 0.368627 0 0 0 0 0.411765 0 0 0 0.2 0"/>
<feBlend mode="normal" in2="BackgroundImageFix" result="effect1_dropShadow_2629_2804"/>
<feBlend mode="normal" in="SourceGraphic" in2="effect1_dropShadow_2629_2804" result="shape"/>
</filter>
</defs>
</svg>
