<svg width="31" height="32" viewBox="0 0 31 32" fill="none" xmlns="http://www.w3.org/2000/svg">
<path d="M23.2361 4.49093L23.1336 10.0394C23.1189 10.8007 23.6021 11.8109 24.2169 12.2647L27.8476 15.017C30.1754 16.7738 29.7947 18.9259 27.0131 19.8043L22.2845 21.2829C21.4939 21.5318 20.6594 22.3955 20.4545 23.2007L19.3272 27.5048C18.4342 30.9013 16.2089 31.238 14.3643 28.2515L11.7877 24.0791C11.3192 23.3178 10.2066 22.7469 9.32817 22.7908L4.43849 23.0397C0.939559 23.2154 -0.055967 21.195 2.22785 18.5306L5.12652 15.1634C5.6682 14.5339 5.91707 13.3627 5.6682 12.5721L4.18964 7.84343C3.32589 5.06186 4.8777 3.5247 7.64464 4.43237L11.9634 5.85244C12.6953 6.08668 13.7933 5.92563 14.4082 5.47179L18.9173 2.22174C21.3475 0.46495 23.2946 1.48976 23.2361 4.49093Z" fill="white" stroke="#825E69" stroke-width="2" stroke-linecap="round" stroke-linejoin="round"/>
<path d="M30.0003 30.6378L25.5645 26.2019" stroke="#825E69" stroke-width="2" stroke-linecap="round" stroke-linejoin="round"/>
</svg>
