<svg width="12" height="15" viewBox="0 0 12 15" fill="none" xmlns="http://www.w3.org/2000/svg">
<path fill-rule="evenodd" clip-rule="evenodd" d="M5.75297 14.924C5.75314 14.9241 5.75327 14.9242 6 14.5835L5.75297 14.924ZM6.24703 14.924L6.24857 14.9229L6.25247 14.9203L6.2661 14.9108C6.2778 14.9026 6.29464 14.8908 6.31624 14.8754C6.35944 14.8445 6.4218 14.7993 6.50061 14.7404C6.65816 14.6226 6.88161 14.4499 7.14904 14.2276C7.6833 13.7835 8.39606 13.1388 9.10993 12.336C10.5274 10.7418 12 8.46657 12 5.86545C12 4.31064 11.3685 2.819 10.2435 1.71881C9.1185 0.618567 7.5921 0 6 0C4.4079 0 2.8815 0.618567 1.75646 1.71881C0.631543 2.819 0 4.31064 0 5.86545C0 8.46657 1.47261 10.7418 2.89007 12.336C3.60394 13.1388 4.3167 13.7835 4.85096 14.2276C5.11839 14.4499 5.34184 14.6226 5.49939 14.7404C5.5782 14.7993 5.64056 14.8445 5.68376 14.8754C5.70536 14.8908 5.7222 14.9026 5.7339 14.9108L5.74753 14.9203L5.75143 14.9229L5.75297 14.924C5.90096 15.0253 6.09904 15.0253 6.24703 14.924ZM6 14.5835L6.24703 14.924C6.24686 14.9241 6.24673 14.9242 6 14.5835ZM8.14286 5.83341C8.14286 6.98401 7.18346 7.91677 6 7.91677C4.81654 7.91677 3.85714 6.98401 3.85714 5.83341C3.85714 4.68281 4.81654 3.75005 6 3.75005C7.18346 3.75005 8.14286 4.68281 8.14286 5.83341Z" fill="#FF0000"/>
</svg>
