<svg width="10" height="12" viewBox="0 0 10 12" fill="none" xmlns="http://www.w3.org/2000/svg">
<path fill-rule="evenodd" clip-rule="evenodd" d="M5.28006 11.4267C5.28006 11.4267 5.28029 11.4268 5.46533 11.177L5.28006 11.4267ZM5.6506 11.4267L5.65176 11.4259L5.65469 11.424L5.66491 11.417C5.67368 11.411 5.68631 11.4023 5.70251 11.391C5.73491 11.3684 5.78168 11.3352 5.84079 11.2921C5.95895 11.2057 6.12654 11.079 6.32711 10.916C6.72781 10.5903 7.26237 10.1176 7.79778 9.52879C8.86087 8.35972 9.96533 6.69124 9.96533 4.78375C9.96533 3.64356 9.49168 2.54969 8.64799 1.74289C7.80421 0.936037 6.65941 0.482422 5.46533 0.482422C4.27126 0.482422 3.12646 0.936037 2.28267 1.74289C1.43899 2.54969 0.965332 3.64356 0.965332 4.78375C0.965332 6.69124 2.06979 8.35972 3.13289 9.52879C3.66829 10.1176 4.20286 10.5903 4.60355 10.916C4.80412 11.079 4.97171 11.2057 5.08987 11.2921C5.14898 11.3352 5.19575 11.3684 5.22815 11.391C5.24435 11.4023 5.25698 11.411 5.26576 11.417L5.27598 11.424L5.2789 11.4259L5.28006 11.4267C5.39105 11.501 5.53961 11.501 5.6506 11.4267ZM5.46533 11.177L5.6506 11.4267C5.6506 11.4267 5.65038 11.4268 5.46533 11.177ZM7.07247 4.76026C7.07247 5.60403 6.35292 6.28805 5.46533 6.28805C4.57774 6.28805 3.85819 5.60403 3.85819 4.76026C3.85819 3.91648 4.57774 3.23246 5.46533 3.23246C6.35292 3.23246 7.07247 3.91648 7.07247 4.76026Z" fill="#6A4F4F"/>
</svg>
