<svg width="51" height="13" viewBox="0 0 51 13" fill="none" xmlns="http://www.w3.org/2000/svg">
<g clip-path="url(#clip0_2736_2590)">
<path fill-rule="evenodd" clip-rule="evenodd" d="M13.531 12.2256V5.09912H13.164L10.551 12.2256H7.44901H7.44L4.83299 5.09912H4.46899V12.2256H0V0.225924H4.46899C5.01999 0.219664 5.559 0.369654 6.007 0.654054C6.456 0.938444 6.79001 1.34243 6.96201 1.80722L8.799 7.35369H9.185L11.024 1.80722C11.197 1.34067 11.534 0.935475 11.985 0.650955C12.436 0.366445 12.978 0.217504 13.531 0.225924H18V12.2256H13.531Z" fill="#52B461"/>
<path fill-rule="evenodd" clip-rule="evenodd" d="M28.621 12.2203V5.09676H28.293L25.574 11.0741C25.407 11.4159 25.137 11.7058 24.795 11.9092C24.454 12.1125 24.056 12.2205 23.649 12.2203H20V0.225586H24.336V7.34909H24.68L27.433 1.3651L27.455 1.31979C27.629 0.992856 27.898 0.717456 28.234 0.524976C28.569 0.332486 28.956 0.230606 29.351 0.230916H33V12.2256H28.624L28.621 12.2203Z" fill="#52B461"/>
<path fill-rule="evenodd" clip-rule="evenodd" d="M45.838 8.05099H40.521V12.2256H36V5.22559H51C50.534 6.11482 49.796 6.85699 48.878 7.35949C47.96 7.86199 46.903 8.10249 45.838 8.05099Z" fill="#52B461"/>
<path fill-rule="evenodd" clip-rule="evenodd" d="M50.89 4.22559H42.599C38.813 4.22559 35.663 2.49571 35 0.225586H45.758C48.653 0.225586 51 1.71193 51 3.54426C51 3.77469 50.963 4.00401 50.89 4.22559Z" fill="url(#paint0_linear_2736_2590)"/>
</g>
<defs>
<linearGradient id="paint0_linear_2736_2590" x1="51.014" y1="2.2216" x2="34.977" y2="2.2216" gradientUnits="userSpaceOnUse">
<stop stop-color="#198ECA"/>
<stop offset="1" stop-color="#1DB5E4"/>
</linearGradient>
<clipPath id="clip0_2736_2590">
<rect width="51" height="12" fill="white" transform="translate(0 0.225586)"/>
</clipPath>
</defs>
</svg>
