<svg width="20" height="21" viewBox="0 0 20 21" fill="none" xmlns="http://www.w3.org/2000/svg">
<g clip-path="url(#clip0_2736_2560)">
<path fill-rule="evenodd" clip-rule="evenodd" d="M11 0.225586C11.2652 0.225586 11.5196 0.330957 11.7071 0.518494C11.8946 0.70603 12 0.96037 12 1.22559V7.22559C12 7.49081 11.8946 7.74515 11.7071 7.93268C11.5196 8.12022 11.2652 8.22559 11 8.22559C10.7348 8.22559 10.4804 8.12022 10.2929 7.93268C10.1054 7.74515 10 7.49081 10 7.22559V1.22559C10 0.96037 10.1054 0.70603 10.2929 0.518494C10.4804 0.330957 10.7348 0.225586 11 0.225586ZM14 2.22559C14.2652 2.22559 14.5196 2.33096 14.7071 2.5185C14.8946 2.70603 15 2.96037 15 3.22559V9.22559C15 9.49081 14.8946 9.74515 14.7071 9.93268C14.5196 10.1202 14.2652 10.2256 14 10.2256C13.7348 10.2256 13.4804 10.1202 13.2929 9.93268C13.1054 9.74515 13 9.49081 13 9.22559V3.22559C13 2.96037 13.1054 2.70603 13.2929 2.5185C13.4804 2.33096 13.7348 2.22559 14 2.22559ZM8 2.22559C8.26522 2.22559 8.51957 2.33096 8.70711 2.5185C8.89464 2.70603 9 2.96037 9 3.22559V8.22559C9 8.49081 8.89464 8.74515 8.70711 8.93268C8.51957 9.12022 8.26522 9.22559 8 9.22559C7.73478 9.22559 7.48043 9.12022 7.29289 8.93268C7.10536 8.74515 7 8.49081 7 8.22559V3.22559C7 2.96037 7.10536 2.70603 7.29289 2.5185C7.48043 2.33096 7.73478 2.22559 8 2.22559ZM5 4.22559C5.26522 4.22559 5.51957 4.33096 5.70711 4.5185C5.89464 4.70603 6 4.96037 6 5.22559V9.22559C6 9.49081 5.89464 9.74515 5.70711 9.93268C5.51957 10.1202 5.26522 10.2256 5 10.2256C4.73478 10.2256 4.48043 10.1202 4.29289 9.93268C4.10536 9.74515 4 9.49081 4 9.22559V5.22559C4 4.96037 4.10536 4.70603 4.29289 4.5185C4.48043 4.33096 4.73478 4.22559 5 4.22559Z" fill="#F9C0B0"/>
<path fill-rule="evenodd" clip-rule="evenodd" d="M17 11.2256V15.7343C17 16.6641 16.775 17.6094 16.1252 18.2744C15.6914 18.7184 15.1944 19.0995 14.648 19.4044C13.6856 19.9414 12.6021 20.2241 11.5 20.2256H10.5C8.77609 20.2256 7.1228 19.5408 5.90381 18.3218C4.68482 17.1028 4 15.4495 4 13.7256V12.7256C4.00778 12.2188 4.07833 11.715 4.21001 11.2256H17Z" fill="#F9C0B0"/>
<path d="M18 6.22559H2C0.895431 6.22559 0 7.12102 0 8.22559V13.2256C0 14.3302 0.895431 15.2256 2 15.2256H18C19.1046 15.2256 20 14.3302 20 13.2256V8.22559C20 7.12102 19.1046 6.22559 18 6.22559Z" fill="#0D8F1F"/>
<path fill-rule="evenodd" clip-rule="evenodd" d="M17 15.2749C17 16.3523 16.1267 17.2256 15.0493 17.2256H11.3452C11.0692 16.6523 10.9553 16.0129 11.0158 15.3782C11.0764 14.7434 11.3092 14.1379 11.6885 13.6287C12.0678 13.1195 12.5788 12.7264 13.165 12.4928C13.7513 12.2592 14.3899 12.1943 15.0103 12.3051V9.23264C15.0103 8.96555 15.1151 8.70942 15.3017 8.52056C15.4882 8.3317 15.7413 8.22559 16.0051 8.22559C16.269 8.22559 16.522 8.3317 16.7086 8.52056C16.8952 8.70942 17 8.96555 17 9.23264V15.2749Z" fill="#F9C0B0"/>
</g>
<defs>
<clipPath id="clip0_2736_2560">
<rect width="20" height="20" fill="white" transform="translate(0 0.225586)"/>
</clipPath>
</defs>
</svg>
