<svg width="18" height="21" viewBox="0 0 18 21" fill="none" xmlns="http://www.w3.org/2000/svg">
<path d="M17.2776 17.3284C17.2351 17.6496 17.1199 17.9703 16.9255 18.2714C16.7311 18.5725 16.4943 18.8498 16.1974 19.1011C15.6958 19.5249 15.1672 19.809 14.5927 19.9599C14.027 20.112 13.4308 20.1512 12.8053 20.0684C11.8939 19.9478 10.9483 19.6048 9.97853 19.0316C9.00879 18.4584 8.05912 17.7335 7.13847 16.8582C6.21005 15.9727 5.34588 15.0141 4.5382 13.9721C3.74063 12.9224 3.03832 11.8399 2.43127 10.7246C1.83315 9.61051 1.37801 8.51533 1.08252 7.45036C0.78822 6.37647 0.702467 5.37557 0.825266 4.44766C0.905557 3.84095 1.08953 3.27519 1.37483 2.76824C1.66131 2.25237 2.06699 1.79766 2.59961 1.41422C3.24588 0.927805 3.90798 0.733993 4.56921 0.8215C4.81941 0.854611 5.06252 0.941255 5.27174 1.07788C5.4899 1.2157 5.67417 1.4035 5.80431 1.65676L7.49126 4.84867C7.62259 5.09301 7.71159 5.31359 7.76604 5.52052C7.82166 5.71853 7.84154 5.91181 7.81911 6.08133C7.79077 6.29547 7.69988 6.50132 7.54763 6.68998C7.40431 6.87981 7.20619 7.07148 6.9634 7.25723L6.19101 7.87221C6.07973 7.95735 6.0197 8.06743 6.00081 8.21018C5.99137 8.28156 5.99204 8.3452 6.00046 8.41894C6.01782 8.49387 6.03755 8.55095 6.04833 8.60684C6.17021 8.92256 6.39644 9.34288 6.72821 9.85886C7.06891 10.376 7.43524 10.9057 7.83731 11.44C8.25725 11.9768 8.66405 12.4755 9.0845 12.9396C9.4972 13.3937 9.84601 13.7122 10.1286 13.913C10.1709 13.9368 10.221 13.9706 10.28 14.0057C10.3479 14.0419 10.4182 14.0603 10.4986 14.0709C10.6505 14.091 10.7738 14.0529 10.8851 13.9677L11.6527 13.3884C11.9056 13.195 12.1425 13.0538 12.3622 12.9739C12.5843 12.8762 12.798 12.841 13.0214 12.8705C13.1912 12.893 13.3652 12.9523 13.5512 13.0587C13.7371 13.165 13.9273 13.3082 14.1306 13.4894L16.8108 15.9775C17.0219 16.1689 17.1579 16.3775 17.2267 16.6136C17.2865 16.8485 17.3106 17.0786 17.2776 17.3284Z" fill="#825E69"/>
</svg>
