<svg width="27" height="40" viewBox="0 0 27 40" fill="none" xmlns="http://www.w3.org/2000/svg">
<rect width="19" height="34" rx="5" fill="white"/>
<path d="M20.25 16.7125C24.0468 17.127 27 20.3062 27 24.1667V39.1667C27 39.6269 26.6222 40 26.1562 40C25.6903 40 25.3125 39.6269 25.3125 39.1667V24.1667C25.3125 21.228 23.1122 18.7968 20.25 18.3924L20.25 28.3333C20.25 30.1743 18.739 31.6667 16.875 31.6667C15.3682 31.6667 14.0369 31.2673 12.9067 30.4677C12.4768 30.1636 11.9614 30 11.432 30C10.998 30 10.6494 30.2482 10.5252 30.6161C10.338 31.1708 10.4503 31.7113 10.7982 32.0978L16.6619 38.613C16.9715 38.957 16.9401 39.4837 16.5918 39.7895C16.2435 40.0953 15.7102 40.0643 15.4006 39.7203L11.1374 34.9834C11.0829 34.9943 11.0265 35 10.9688 35H4.21875C1.8888 35 0 33.1345 0 30.8333V4.16666C0 1.86548 1.8888 9.95798e-07 4.21875 9.95798e-07L16.0313 0C18.3612 6.87456e-07 20.25 1.86548 20.25 4.16666L20.25 16.7125ZM9.53694 33.2051C8.78808 32.373 8.54623 31.2093 8.90267 30.1532C9.27818 29.0405 10.2716 28.3333 11.3913 28.3333C12.3139 28.3334 13.173 28.6059 13.8893 29.1127C14.725 29.704 15.7118 30 16.875 30C17.807 30 18.5625 29.2538 18.5625 28.3333L18.5625 4.16666C18.5625 2.78595 17.4292 1.66666 16.0313 1.66666L4.21875 1.66666C2.82078 1.66666 1.6875 2.78595 1.6875 4.16666V30.8333C1.6875 32.2141 2.82078 33.3333 4.21875 33.3333H9.65235L9.53694 33.2051ZM7.59375 5.00006C7.12776 5.00006 6.75 4.62696 6.75 4.16672C6.75 3.70649 7.12776 3.33339 7.59375 3.33339H12.6562C13.1222 3.33339 13.5 3.70649 13.5 4.16672C13.5 4.62696 13.1222 5.00006 12.6562 5.00006H7.59375ZM12.6562 11.6667C15.1167 11.6667 16.875 13.1139 16.875 15.8334C16.875 18.4325 14.7171 20.8681 10.5436 23.2236C10.2842 23.37 9.96578 23.37 9.70638 23.2236C5.53286 20.8681 3.375 18.4325 3.375 15.8334C3.375 13.1139 5.13332 11.6667 7.59375 11.6667C8.60755 11.6667 9.46259 12.0268 10.125 12.7125C10.7874 12.0268 11.6424 11.6667 12.6562 11.6667ZM15.1875 15.8334C15.1875 14.1084 14.2458 13.3334 12.6562 13.3334C11.8627 13.3334 11.304 13.7013 10.8797 14.5394C10.5687 15.1536 9.68127 15.1536 9.37033 14.5394C8.94602 13.7013 8.3873 13.3334 7.59375 13.3334C6.00418 13.3334 5.0625 14.1084 5.0625 15.8334C5.0625 17.6077 6.70786 19.5332 10.125 21.5358C13.5421 19.5332 15.1875 17.6077 15.1875 15.8334Z" fill="#825E69"/>
</svg>
