<svg width="17" height="16" viewBox="0 0 17 16" fill="none" xmlns="http://www.w3.org/2000/svg">
<rect x="0.5" y="0.5" width="16" height="15" rx="2.5" stroke="#E71A1A"/>
<path d="M5.56198 12.333L11.298 3.93301H12.222L6.48598 12.333H5.56198ZM6.23398 8.44501C5.84998 8.44501 5.50998 8.34901 5.21398 8.15701C4.91798 7.96501 4.68598 7.69701 4.51798 7.35301C4.35798 7.00901 4.27798 6.60901 4.27798 6.15301C4.27798 5.69701 4.35798 5.29701 4.51798 4.95301C4.68598 4.60901 4.91798 4.34101 5.21398 4.14901C5.50998 3.95701 5.84998 3.86101 6.23398 3.86101C6.62598 3.86101 6.96598 3.95701 7.25398 4.14901C7.54998 4.34101 7.77798 4.60901 7.93798 4.95301C8.09798 5.29701 8.17798 5.69701 8.17798 6.15301C8.17798 6.60901 8.09798 7.00901 7.93798 7.35301C7.77798 7.69701 7.54998 7.96501 7.25398 8.15701C6.96598 8.34901 6.62598 8.44501 6.23398 8.44501ZM6.23398 7.76101C6.60198 7.76101 6.88998 7.62101 7.09798 7.34101C7.30598 7.05301 7.40998 6.65701 7.40998 6.15301C7.40998 5.64901 7.30598 5.25701 7.09798 4.97701C6.88998 4.68901 6.60198 4.54501 6.23398 4.54501C5.87398 4.54501 5.58598 4.68901 5.36998 4.97701C5.16198 5.25701 5.05798 5.64901 5.05798 6.15301C5.05798 6.64901 5.16198 7.04101 5.36998 7.32901C5.58598 7.61701 5.87398 7.76101 6.23398 7.76101ZM11.55 12.405C11.166 12.405 10.826 12.309 10.53 12.117C10.234 11.925 10.006 11.657 9.84598 11.313C9.68598 10.969 9.60598 10.569 9.60598 10.113C9.60598 9.65701 9.68598 9.25701 9.84598 8.91301C10.006 8.56901 10.234 8.30101 10.53 8.10901C10.826 7.91701 11.166 7.82101 11.55 7.82101C11.942 7.82101 12.282 7.91701 12.57 8.10901C12.866 8.30101 13.094 8.56901 13.254 8.91301C13.422 9.25701 13.506 9.65701 13.506 10.113C13.506 10.569 13.422 10.969 13.254 11.313C13.094 11.657 12.866 11.925 12.57 12.117C12.282 12.309 11.942 12.405 11.55 12.405ZM11.55 11.721C11.91 11.721 12.194 11.581 12.402 11.301C12.618 11.013 12.726 10.617 12.726 10.113C12.726 9.61701 12.618 9.22501 12.402 8.93701C12.194 8.64901 11.91 8.50501 11.55 8.50501C11.19 8.50501 10.902 8.64901 10.686 8.93701C10.478 9.21701 10.374 9.60901 10.374 10.113C10.374 10.617 10.478 11.013 10.686 11.301C10.902 11.581 11.19 11.721 11.55 11.721Z" fill="#E71A1A"/>
</svg>
