<svg width="15" height="21" viewBox="0 0 15 21" fill="none" xmlns="http://www.w3.org/2000/svg">
<g clip-path="url(#clip0_2736_2565)">
<path d="M0 4.5791L2.24103 8.90827V11.5489L0.00299072 15.8696L0 4.5791Z" fill="#5B57A2"/>
<path d="M8.60352 7.33284L10.7035 5.94184L15.0005 5.9375L8.60352 10.1732V7.33284Z" fill="#D90751"/>
<path d="M8.59144 4.55342L8.60249 10.2851L6.35645 8.79342V0.225586L8.59144 4.55342Z" fill="#FAB718"/>
<path d="M14.9994 5.93742L10.7024 5.94176L8.59144 4.55342L6.35645 0.225586L14.9994 5.93742Z" fill="#ED6F26"/>
<path d="M8.60249 15.8936V13.1127L6.35645 11.6494L6.35847 20.2257L8.60249 15.8936Z" fill="#63B22F"/>
<path d="M10.698 14.5153L2.24103 8.90827L0 4.5791L14.991 14.5096L10.698 14.5153Z" fill="#1487C9"/>
<path d="M6.35938 20.2255L8.60339 15.8933L10.6984 14.515L14.9914 14.5093L6.35938 20.2255Z" fill="#017F36"/>
<path d="M0.00292969 15.8695L6.37592 11.6495L4.23291 10.2285L2.24097 11.5488L0.00292969 15.8695Z" fill="#984995"/>
</g>
<defs>
<clipPath id="clip0_2736_2565">
<rect width="15" height="20" fill="white" transform="translate(0 0.225586)"/>
</clipPath>
</defs>
</svg>
