<svg width="20" height="20" viewBox="0 0 20 20" fill="none" xmlns="http://www.w3.org/2000/svg">
<rect x="0.965332" y="0.482422" width="19" height="19" rx="5" fill="#825E69"/>
<path d="M15.4423 4.57953C15.4423 4.57953 16.5524 4.10339 16.4599 5.25974C16.429 5.73589 16.1515 7.40239 15.9357 9.20494L15.1956 14.5446C15.1956 14.5446 15.1339 15.3268 14.5789 15.4628C14.0238 15.5989 13.1913 14.9867 13.0371 14.8506C12.9137 14.7486 10.7244 13.2181 9.95351 12.4699C9.73765 12.2659 9.49096 11.8577 9.98434 11.3816L13.2221 7.98058C13.5921 7.57245 13.9622 6.62016 12.4204 7.77651L8.10336 11.0075C8.10336 11.0075 7.60999 11.3476 6.68493 11.0415L4.6806 10.3613C4.6806 10.3613 3.94053 9.85114 5.2048 9.34096C8.28839 7.74247 12.0812 6.10998 15.4423 4.57953Z" fill="white"/>
</svg>
