<svg width="17" height="14" viewBox="0 0 17 14" fill="none" xmlns="http://www.w3.org/2000/svg">
<path d="M8.5 3.4838C7.52604 3.4838 6.72917 2.69994 6.72917 1.7419C6.72917 0.762255 7.52604 0 8.5 0C9.47396 0 10.2708 0.762255 10.2708 1.7419C10.2708 2.69994 9.47396 3.4838 8.5 3.4838ZM1.43862 2.76474C2.21354 2.76474 2.83333 3.39601 2.83333 4.15826C2.83333 4.94212 2.21354 5.55178 1.43862 5.55178C0.64175 5.55178 0 4.94212 0 4.15826C0 3.39601 0.64175 2.76474 1.43862 2.76474ZM15.6053 2.76474C16.3802 2.76474 17 3.39601 17 4.15826C17 4.94212 16.3802 5.55178 15.6053 5.55178C14.8084 5.55178 14.1667 4.94212 14.1667 4.15826C14.1667 3.39601 14.8084 2.76474 15.6053 2.76474ZM2.98846 12.3891L1.81546 6.07435C2.16962 6.00886 2.50183 5.81307 2.76746 5.59498C3.49775 6.24854 4.42779 6.87981 5.31321 6.87981C6.37571 6.87981 7.23917 5.2682 7.837 3.91858C8.03604 3.98407 8.27971 4.04957 8.50142 4.04957C8.72312 4.04957 8.96608 3.98407 9.16583 3.91858C9.76367 5.2689 10.6271 6.87981 11.6896 6.87981C12.575 6.87981 13.5051 6.24854 14.2354 5.59498C14.501 5.81307 14.8332 6.00886 15.1874 6.07435L14.0144 12.3891H2.99058H2.98846ZM2.74479 12.9333H14.2552V14H2.74479V12.9333Z" fill="#825E69"/>
</svg>
