<svg width="19" height="19" viewBox="0 0 19 19" fill="none" xmlns="http://www.w3.org/2000/svg">
<path d="M18.9653 5.07742C18.9552 4.68914 18.9252 4.30163 18.8753 3.91642C18.8081 3.57903 18.6961 3.25214 18.5423 2.94442C18.3815 2.61062 18.1654 2.30635 17.9033 2.04442C17.6388 1.78541 17.3351 1.56975 17.0033 1.40542C16.6952 1.25462 16.3683 1.14566 16.0313 1.08142C15.6498 1.02427 15.265 0.991206 14.8793 0.982422H5.06033C4.67205 0.992535 4.28454 1.02257 3.89933 1.07242C3.56194 1.13962 3.23505 1.25161 2.92733 1.40542C2.59353 1.56628 2.28926 1.78232 2.02733 2.04442C1.76832 2.30894 1.55266 2.61268 1.38833 2.94442C1.23753 3.25255 1.12857 3.57944 1.06433 3.91642C1.00718 4.29796 0.974116 4.68272 0.965332 5.06842C0.965332 5.23942 0.965332 5.48242 0.965332 5.55442V14.4104C0.965332 14.5094 0.965332 14.7254 0.965332 14.8874C0.975445 15.2757 1.00548 15.6632 1.05533 16.0484C1.12253 16.3858 1.23453 16.7127 1.38833 17.0204C1.5492 17.3542 1.76523 17.6585 2.02733 17.9204C2.29185 18.1794 2.59559 18.3951 2.92733 18.5594C3.23546 18.7102 3.56235 18.8192 3.89933 18.8834C4.28087 18.9406 4.66563 18.9736 5.05133 18.9824H14.8703C15.2586 18.9723 15.6461 18.9423 16.0313 18.8924C16.3687 18.8252 16.6956 18.7132 17.0033 18.5594C17.3371 18.3986 17.6414 18.1825 17.9033 17.9204C18.1623 17.6559 18.378 17.3522 18.5423 17.0204C18.6931 16.7123 18.8021 16.3854 18.8663 16.0484C18.9235 15.6669 18.9565 15.2821 18.9653 14.8964C18.9653 14.7254 18.9653 14.5094 18.9653 14.4104V5.55442C18.9653 5.48242 18.9653 5.23942 18.9653 5.07742ZM10.1723 16.2824C9.09149 16.2771 8.02955 15.9984 7.08533 15.4724L3.66533 16.3724L4.56533 13.0244C3.98493 12.0492 3.67432 10.9372 3.66533 9.80242C3.66892 8.52705 4.04981 7.28127 4.76006 6.22196C5.4703 5.16265 6.47812 4.3372 7.65659 3.84957C8.83506 3.36193 10.1315 3.23393 11.3825 3.48167C12.6336 3.72941 13.7834 4.34182 14.6871 5.24177C15.5908 6.14171 16.208 7.28895 16.4609 8.53899C16.7139 9.78903 16.5913 11.086 16.1085 12.2664C15.6258 13.4469 14.8046 14.4582 13.7482 15.1728C12.6919 15.8875 11.4477 16.2735 10.1723 16.2824ZM10.1723 4.46542C9.21816 4.47634 8.28392 4.73991 7.46473 5.22929C6.64554 5.71866 5.97066 6.41638 5.5088 7.25139C5.04694 8.0864 4.81459 9.02889 4.83541 9.9829C4.85623 10.9369 5.12948 11.8684 5.62733 12.6824L5.75333 12.8894L5.21333 14.8604L7.26533 14.3024L7.46333 14.4194C8.28195 14.9016 9.21329 15.1593 10.1633 15.1664C11.5955 15.1664 12.969 14.5975 13.9817 13.5848C14.9944 12.5721 15.5633 11.1986 15.5633 9.76642C15.5633 8.33425 14.9944 6.96074 13.9817 5.94805C12.969 4.93535 11.5955 4.36642 10.1633 4.36642L10.1723 4.46542ZM13.3223 12.1334C13.2045 12.33 13.0466 12.4997 12.859 12.6315C12.6714 12.7633 12.4583 12.8542 12.2333 12.8984C11.8972 12.9599 11.5512 12.9382 11.2253 12.8354C10.9187 12.7396 10.6182 12.6254 10.3253 12.4934C9.2127 11.9351 8.26383 11.0979 7.57133 10.0634C7.19503 9.58415 6.9667 9.00552 6.91433 8.39842C6.90897 8.14623 6.95668 7.89573 7.05436 7.66316C7.15204 7.43059 7.2975 7.22115 7.48133 7.04842C7.53548 6.98703 7.60191 6.93769 7.67632 6.90358C7.75074 6.86947 7.83148 6.85136 7.91333 6.85042H8.16533C8.26433 6.85042 8.39933 6.85042 8.52533 7.12942C8.65133 7.40842 8.98433 8.24542 9.02933 8.32642C9.05145 8.3696 9.06298 8.41741 9.06298 8.46592C9.06298 8.51443 9.05145 8.56225 9.02933 8.60542C8.98955 8.70322 8.9349 8.79429 8.86733 8.87542C8.78633 8.97442 8.69633 9.09142 8.62433 9.16342C8.55233 9.23542 8.46233 9.32542 8.55233 9.48742C8.79721 9.90069 9.10032 10.2765 9.45233 10.6034C9.83566 10.9421 10.2739 11.213 10.7483 11.4044C10.9103 11.4854 11.0093 11.4764 11.0993 11.4044C11.1893 11.3324 11.5043 10.9364 11.6123 10.7744C11.7203 10.6124 11.8283 10.6394 11.9723 10.6934C12.1163 10.7474 12.9173 11.1344 13.0793 11.2154C13.2413 11.2964 13.3403 11.3324 13.3853 11.4044C13.4244 11.64 13.4027 11.8816 13.3223 12.1064V12.1334Z" fill="#825E69"/>
</svg>
