<svg width="37" height="36" viewBox="0 0 37 36" fill="none" xmlns="http://www.w3.org/2000/svg">
<path d="M23.6395 17.3691C24.0299 16.3282 24.2901 15.2873 24.2901 14.1163C24.2901 12.6851 25.4611 11.5141 26.8923 11.5141V8.5215C26.8923 4.87836 24.16 1.49544 20.5168 1.10511C17.9146 0.844882 15.5726 1.88578 14.1413 3.83746C13.1004 3.57724 12.0595 3.70735 10.7584 4.61814C9.4573 5.52892 8.67662 7.22038 8.67662 8.91184V10.213V12.1646V13.8561C8.67662 16.7186 10.238 19.4509 12.58 20.8822C12.58 23.8748 10.4982 26.3469 7.63572 27.1276C4.25281 28.0383 1.78067 30.7707 1 34.1536C1 34.544 1.26022 34.9343 1.78067 34.9343H26.8923" fill="white"/>
<path d="M23.6395 17.3691C24.0299 16.3282 24.2901 15.2873 24.2901 14.1163C24.2901 12.6851 25.4611 11.5141 26.8923 11.5141V8.5215C26.8923 4.87836 24.16 1.49544 20.5168 1.10511C17.9146 0.844882 15.5726 1.88578 14.1413 3.83746C13.1004 3.57724 12.0595 3.70735 10.7584 4.61814C9.4573 5.52892 8.67662 7.22038 8.67662 8.91184V10.213V12.1646V13.8561C8.67662 16.7186 10.238 19.4509 12.58 20.8822C12.58 23.8748 10.4982 26.3469 7.63572 27.1276C4.25281 28.0383 1.78067 30.7707 1 34.1536C1 34.544 1.26022 34.9343 1.78067 34.9343H26.8923" stroke="#825E69" stroke-width="2" stroke-miterlimit="10" stroke-linecap="round" stroke-linejoin="round"/>
<path d="M26.8911 34.934C31.9212 34.934 35.9989 30.8563 35.9989 25.8261C35.9989 20.796 31.9212 16.7183 26.8911 16.7183C21.8609 16.7183 17.7832 20.796 17.7832 25.8261C17.7832 30.8563 21.8609 34.934 26.8911 34.934Z" stroke="#825E69" stroke-width="2" stroke-miterlimit="10" stroke-linecap="round" stroke-linejoin="round"/>
<path d="M26.8926 20.6218V25.8263" stroke="#825E69" stroke-width="2" stroke-miterlimit="10" stroke-linecap="round" stroke-linejoin="round"/>
<path d="M26.8926 25.8263L30.7959 24.5251" stroke="#825E69" stroke-width="2" stroke-miterlimit="10" stroke-linecap="round" stroke-linejoin="round"/>
</svg>
