<svg width="14" height="15" viewBox="0 0 14 15" fill="none" xmlns="http://www.w3.org/2000/svg">
<path fill-rule="evenodd" clip-rule="evenodd" d="M7 14.3596C10.866 14.3596 14 11.2256 14 7.35962C14 3.49362 10.866 0.359619 7 0.359619C3.134 0.359619 0 3.49362 0 7.35962C0 11.2256 3.134 14.3596 7 14.3596ZM6.20291 5.51396L6.11114 5.67856C6.01034 5.85936 5.95994 5.94976 5.8814 6.00939C5.80279 6.06903 5.70493 6.09122 5.50924 6.13546L5.33107 6.17578C4.64236 6.3316 4.29801 6.40951 4.21608 6.67299C4.13415 6.93647 4.36891 7.21094 4.83843 7.76002L4.9599 7.90205C5.09332 8.05808 5.16003 8.13606 5.19004 8.23259C5.22005 8.32912 5.20997 8.43314 5.18979 8.64132L5.17143 8.83088C5.10044 9.56336 5.06495 9.92967 5.27944 10.0925C5.49393 10.2553 5.81637 10.1068 6.46121 9.80997L6.62802 9.73311C6.81128 9.64876 6.90291 9.60655 7 9.60655C7.09709 9.60655 7.18872 9.64876 7.37198 9.73311L7.53879 9.80997C8.18363 10.1068 8.50605 10.2553 8.72053 10.0925C8.93508 9.92967 8.89952 9.56336 8.82854 8.83088L8.8102 8.64132C8.79004 8.43314 8.77996 8.32912 8.80999 8.23259C8.83995 8.13606 8.90666 8.05808 9.04008 7.90205L9.1616 7.76002C9.63109 7.21094 9.86587 6.93647 9.7839 6.67299C9.702 6.40951 9.35767 6.3316 8.66894 6.17578L8.49072 6.13546C8.29507 6.09122 8.19721 6.06903 8.1186 6.00939C8.04006 5.94976 7.98966 5.85937 7.88886 5.67857L7.79709 5.51396C7.44247 4.87773 7.26509 4.55962 7 4.55962C6.73491 4.55962 6.55753 4.87774 6.20291 5.51396Z" fill="#FFBB3E"/>
</svg>
