<svg width="39" height="17" viewBox="0 0 39 17" fill="none" xmlns="http://www.w3.org/2000/svg">
<g clip-path="url(#clip0_2736_2600)">
<path d="M20.0273 3.72559V12.4756H21.5493V9.39427H22.2383C24.1893 9.39427 25.6423 8.48617 25.6423 6.55993C25.6423 4.63366 24.2783 3.72559 22.4863 3.72559H20.0273ZM21.5493 4.93301H22.4863C23.7173 4.93301 24.0653 5.75194 24.0653 6.55993C24.0653 7.36791 23.7173 8.18687 22.4863 8.18687H21.5493V4.93301Z" fill="#777777"/>
<path d="M27.9189 3.72559L25.5889 12.4756H26.8609L27.3549 10.5899H30.1129L30.5989 12.4756H32.1709L29.8409 3.72559H27.9189ZM28.7449 5.28085L29.8019 9.38247H27.6709L28.7449 5.28085Z" fill="#777777"/>
<path d="M31.6768 3.72559L34.3068 8.74057V12.4756H35.8288V8.74057L38.4588 3.72559H36.9998L35.1618 7.41468L33.3238 3.72559H31.6768Z" fill="#777777"/>
<path d="M15.811 8.10057C15.811 10.1892 14.978 12.1922 13.495 13.6691C12.013 15.1459 10.002 15.9756 7.90503 15.9756C5.80903 15.9756 3.798 15.1459 2.315 13.6691C0.833002 12.1922 0 10.1892 0 8.10057C0 6.01202 0.833002 4.00898 2.315 2.53213C3.798 1.05528 5.80903 0.225586 7.90503 0.225586C10.002 0.225586 12.013 1.05528 13.495 2.53213C14.978 4.00898 15.811 6.01202 15.811 8.10057Z" fill="#FB3F1D"/>
<path d="M10.5416 12.4756H8.93054V4.9091H8.21253C6.89453 4.9091 6.20258 5.53837 6.20258 6.47017C6.20258 7.52752 6.68157 8.01868 7.66657 8.64827L8.47858 9.16457L6.13556 12.4756H4.39258L6.49555 9.51697C5.28455 8.69847 4.60553 7.90538 4.60553 6.55836C4.60553 4.87113 5.84355 3.72559 8.19855 3.72559H10.5416V12.4756Z" fill="white"/>
</g>
<defs>
<clipPath id="clip0_2736_2600">
<rect width="39" height="16" fill="white" transform="translate(0 0.225586)"/>
</clipPath>
</defs>
</svg>
