<svg width="28" height="21" viewBox="0 0 28 21" fill="none" xmlns="http://www.w3.org/2000/svg">
<g clip-path="url(#clip0_2736_2595)">
<path fill-rule="evenodd" clip-rule="evenodd" d="M17.9199 20.2256C23.4869 20.2256 27.9999 15.7484 27.9999 10.2256C27.9999 4.70274 23.4869 0.225586 17.9199 0.225586C12.3529 0.225586 7.83984 4.70274 7.83984 10.2256C7.83984 15.7484 12.3529 20.2256 17.9199 20.2256ZM17.9199 14.1145C20.0849 14.1145 21.8399 12.3734 21.8399 10.2256C21.8399 8.07782 20.0849 6.3367 17.9199 6.3367C15.7549 6.3367 13.9999 8.07782 13.9999 10.2256C13.9999 12.3734 15.7549 14.1145 17.9199 14.1145Z" fill="#8A42F9"/>
<path d="M7.84 3.55859H0L4.181 16.892H7.84V3.55859Z" fill="#8A42F9"/>
</g>
<defs>
<clipPath id="clip0_2736_2595">
<rect width="28" height="20" fill="white" transform="translate(0 0.225586)"/>
</clipPath>
</defs>
</svg>
